<?xml version="1.0" encoding="UTF-8"?>
<!DOCTYPE svg PUBLIC "-//W3C//DTD SVG 1.1//EN" "http://www.w3.org/Graphics/SVG/1.1/DTD/svg11.dtd">
<!-- Creator: CorelDRAW 2019 (64-Bit) -->
<svg xmlns="http://www.w3.org/2000/svg" xml:space="preserve" width="1457px" height="480px" version="1.1" style="shape-rendering:geometricPrecision; text-rendering:geometricPrecision; image-rendering:optimizeQuality; fill-rule:evenodd; clip-rule:evenodd"
viewBox="0 0 1457 480.07"
 xmlns:xlink="http://www.w3.org/1999/xlink"
 xmlns:xodm="http://www.corel.com/coreldraw/odm/2003">
 <defs>
  <style type="text/css">
   <![CDATA[
    .fil3 {fill:white}
    .fil4 {fill:black;fill-rule:nonzero}
    .fil0 {fill:#00AA11;fill-rule:nonzero}
    .fil2 {fill:#00AED6;fill-rule:nonzero}
    .fil1 {fill:black;fill-rule:nonzero}
   ]]>
  </style>
 </defs>
 <g id="Layer_x0020_1">
  <metadata id="CorelCorpID_0Corel-Layer"/>
  <path class="fil0" d="M791.71 415.1c-1.51,28.2 -14.08,47.51 -38.17,59.2 -7,3.4 -13.53,0.71 -16.71,-6.46 -2.46,-5.53 0.35,-11.83 6.95,-14.77 17.06,-7.6 24.55,-23.2 24.22,-37.9 -0.39,-17.86 -11.09,-31.48 -27.92,-37.34 -16.21,-5.64 -33.14,-0.17 -45.1,14.58 -9.19,11.33 -9.97,30.89 -1.91,44.01 4.46,7.28 10.38,12.77 18.14,16.43 7.32,3.45 9.9,9.81 6.94,16.1 -3.02,6.43 -10.18,8.49 -17.36,4.86 -19.3,-9.74 -31.94,-24.87 -35.81,-46.34 -6.12,-33.93 15.08,-64.38 45.62,-72.82 36.1,-9.99 70.78,12.82 78.85,45.83 1.28,5.21 1.66,10.64 2.26,14.62z"/>
  <path class="fil1" d="M883.89 380.64c0.19,-2.7 0.34,-4.85 0.51,-7.31 6.25,0 12.26,0 18.64,0 0.14,1.37 0.39,2.67 0.39,3.96 0.02,22.03 0.13,44.06 -0.04,66.09 -0.1,13.6 -5.35,24.77 -17.49,31.64 -15.22,8.59 -38.95,5.88 -52.55,-5.54 -1.28,-1.08 -2.5,-2.23 -4,-3.56 4.04,-3.98 8.01,-7.88 12.36,-12.17 6.8,5.45 14.4,8.19 23.29,7.92 13.71,-0.41 20.46,-7.92 18.68,-22.52 -11.47,8.97 -24.14,9.31 -36.99,5.02 -7.67,-2.57 -13.73,-7.7 -18.02,-14.85 -9.06,-15.11 -6.73,-34.29 5.82,-45.99 13.45,-12.55 33.79,-13.84 49.4,-2.69zm-0.78 29.28l0 0c0,-12.77 -6.93,-19.73 -19.54,-19.61 -11.86,0.11 -19.85,7.87 -20.28,18.7 -0.57,14.09 8.6,20.44 20.73,20.28 12.46,-0.17 19.09,-6.76 19.09,-19.37z"/>
  <path class="fil1" d="M1199.99 373.11c-11.5,10.84 -21.97,20.72 -32.59,30.74 10.8,14.37 21.37,28.42 32.66,43.44 -7.72,0 -14.11,0.19 -20.47,-0.14 -1.48,-0.08 -3.24,-1.66 -4.25,-3.01 -5.87,-7.85 -11.55,-15.84 -17.3,-23.77 -0.97,-1.34 -2,-2.63 -3.73,-4.9 -4.14,4.74 -9.42,8.47 -11.22,13.46 -1.88,5.22 -0.42,11.65 -0.42,18.37 -3.45,0 -6.43,0 -9.41,0 -2.85,0 -5.7,0 -9.01,0 -0.13,-2.2 -0.32,-4 -0.32,-5.79 -0.02,-27.79 0.13,-55.59 -0.15,-83.38 -0.05,-5.34 1.59,-6.89 6.64,-6.35 3.82,0.41 7.71,0.08 12.18,0.08 0,16.89 0,33.18 0,50.85 5.84,-5.26 10.69,-9.57 15.47,-13.97 4.84,-4.46 9.57,-9.06 14.45,-13.49 1.06,-0.96 2.53,-2.01 3.84,-2.05 7.38,-0.19 14.75,-0.09 23.63,-0.09z"/>
  <path class="fil1" d="M1056.17 416.51c1.15,7.85 8.66,13.84 17.3,14.53 7.31,0.58 14.15,-0.48 20.12,-5.23 0.95,-0.76 3.01,-1.36 3.83,-0.85 3.99,2.44 7.73,5.29 11.94,8.26 -12.95,12.9 -27.69,16.45 -44.64,12.26 -13.77,-3.4 -23.77,-11.13 -27,-25.27 -7.04,-30.77 16.65,-51.1 44.04,-46.46 15.89,2.69 25.79,12.01 29.51,27.54 1.11,4.65 0.79,9.64 1.18,15.22 -9.95,0 -19.21,0 -28.48,0 -9.14,0 -18.27,0 -27.8,0zm36.76 -14.18l0 0c-1.29,-9.23 -8.62,-13.63 -20.97,-13.05 -8.85,0.42 -14.85,5.45 -15.29,13.05 12,0 23.98,0 36.26,0z"/>
  <path class="fil1" d="M953.95 372.07c21.91,0.86 38.17,14.5 39.81,35.73 1.11,14.48 -5.26,26.11 -18,33.92 -14.59,8.94 -37.72,6.55 -50.08,-5.39 -18.51,-17.9 -12.85,-49.48 10.87,-59.39 5.52,-2.31 11.59,-3.29 17.4,-4.87zm19.92 38.17l0 0c-0.04,-12.05 -7.73,-20.02 -19.36,-19.93 -13.05,0.1 -19.86,8.51 -20.3,19.98 -0.43,11.01 9.03,19.86 20.09,19.78 11.81,-0.09 19.61,-7.98 19.57,-19.83z"/>
  <path class="fil1" d="M1005.24 373.17c6.72,0 12.63,0 19.34,0 0,1.64 0,3.25 0,4.85 0,26.8 0.01,53.59 -0.02,80.39 -0.01,13.52 -7.89,21.38 -21.41,21.43 -5.21,0.02 -10.42,0 -16.2,0 0,-3.18 0,-5.84 0,-8.5 0,-2.69 0,-5.37 0,-9.01 3.5,0 6.65,0.13 9.79,-0.02 7.15,-0.35 8.51,-1.81 8.51,-8.86 0,-24.76 0,-49.52 -0.01,-74.28 0,-1.83 0,-3.66 0,-6z"/>
  <path class="fil0" d="M704.11 415.39c-1.46,-10.85 12.28,-23.9 23.95,-23.14 12.92,0.85 23.62,10.93 23.53,23.83 -0.08,12.85 -11.24,24.21 -24.1,23.87 -12.86,-0.35 -24.14,-10.53 -23.38,-24.56z"/>
  <path class="fil1" d="M256.94 382.14l19.95 0c10.87,0 17.3,6.13 17.3,15.96 0,9.98 -6.36,15.81 -17.3,15.81l-13.89 0 0 19.96 -6.06 0 0 -51.73zm19.58 26.01l0 0c7.91,0 11.53,-3.18 11.53,-10.05 0,-6.87 -3.77,-10.2 -11.53,-10.2l-13.52 0 0 20.25 13.52 0z"/>
  <path class="fil1" d="M315.63 393.59c11.08,0 18.47,8.35 18.47,20.69 0,12.35 -7.39,20.7 -18.47,20.7 -11.02,0 -18.41,-8.35 -18.41,-20.7 0,-12.34 7.39,-20.69 18.41,-20.69zm0 5.4l0 0c-7.77,0 -12.64,5.91 -12.64,15.29 0,9.39 4.87,15.3 12.64,15.3 7.75,0 12.71,-5.91 12.71,-15.3 0,-9.38 -4.96,-15.29 -12.71,-15.29z"/>
  <polygon class="fil1" points="337.8,394.7 343.49,394.7 350.59,425.15 350.74,425.15 361.23,394.7 366.48,394.7 376.97,425.15 377.12,425.15 384.21,394.7 389.9,394.7 380.52,433.87 375.05,433.87 363.96,401.87 363.82,401.87 352.66,433.87 347.19,433.87 "/>
  <path class="fil1" d="M411.79 393.59c10.49,0 17.51,7.91 17.51,19.44l0 2.96 -29.78 0c0.15,7.53 4.95,13.74 12.12,13.74 5.54,0 8.65,-2 11.97,-7.83l4.8 2.88c-3.32,6.72 -9.01,10.2 -16.62,10.2 -10.87,0 -18.11,-8.35 -18.11,-20.7 0,-12.34 7.47,-20.69 18.11,-20.69zm11.67 17.74l0 0c-0.07,-3.62 -1.25,-6.58 -3.39,-8.94 -2.15,-2.37 -4.88,-3.55 -8.28,-3.55 -6.65,0 -11.98,5.91 -12.12,12.49l23.79 0z"/>
  <path class="fil1" d="M437.51 394.7l5.47 0 0 3.25 0.15 0c1.48,-2.44 4.36,-3.92 8.13,-3.92 1.18,0 2.51,0.23 3.92,0.59l-1.26 5.99c-1.41,-0.44 -2.74,-0.66 -3.84,-0.66 -4.66,0 -6.8,3.1 -6.8,10.42l0 23.5 -5.77 0 0 -39.17z"/>
  <path class="fil1" d="M475.94 393.59c10.5,0 17.52,7.91 17.52,19.44l0 2.96 -29.78 0c0.14,7.53 4.95,13.74 12.12,13.74 5.54,0 8.64,-2 11.97,-7.83l4.8 2.88c-3.32,6.72 -9.01,10.2 -16.63,10.2 -10.86,0 -18.1,-8.35 -18.1,-20.7 0,-12.34 7.46,-20.69 18.1,-20.69zm11.68 17.74l0 0c-0.07,-3.62 -1.25,-6.58 -3.4,-8.94 -2.14,-2.37 -4.88,-3.55 -8.28,-3.55 -6.65,0 -11.97,5.91 -12.12,12.49l23.8 0z"/>
  <path class="fil1" d="M517.78 393.59c4.73,0 8.94,2 11.53,5.25l0.15 0 0 -18.92 5.76 0 0 53.95 -5.54 0 0 -3.92 -0.15 0c-2.59,3.18 -6.95,5.03 -11.75,5.03 -10.2,0 -17.59,-8.5 -17.59,-20.7 0,-12.19 7.39,-20.69 17.59,-20.69zm11.68 16.85l0 0c0,-6.36 -5.18,-11.45 -11.68,-11.45 -7.02,0 -11.82,6.05 -11.82,15.29 0,9.24 4.8,15.3 12.19,15.3 6.21,0 11.31,-5.17 11.31,-11.53l0 -7.61z"/>
  <path class="fil1" d="M570.48 429.95l0 3.92 -5.54 0 0 -53.95 5.76 0 0 18.92 0.15 0c2.59,-3.25 6.8,-5.25 11.53,-5.25 10.2,0 17.59,8.5 17.59,20.69 0,12.2 -7.39,20.7 -17.59,20.7 -4.81,0 -9.17,-1.85 -11.75,-5.03l-0.15 0zm11.9 -30.96l0 0c-6.5,0 -11.68,5.09 -11.68,11.45l0 7.61c0,6.36 5.1,11.53 11.31,11.53 7.39,0 12.19,-6.06 12.19,-15.3 0,-9.24 -4.8,-15.29 -11.82,-15.29z"/>
  <polygon class="fil1" points="616.97,430.54 601.9,394.7 608.03,394.7 619.93,423.89 620.08,423.89 632.05,394.7 638.18,394.7 614.68,450.5 608.69,450.5 "/>
  <path class="fil2" d="M158.96 0c87.79,0 158.96,68.68 158.96,153.41 0,84.72 -71.17,153.4 -158.96,153.4 -87.79,0 -158.96,-68.68 -158.96,-153.4 0,-84.73 71.17,-153.41 158.96,-153.41z"/>
  <path class="fil3" d="M251.69 148.68c-1.21,-19.53 -18.44,-34.5 -38.68,-33.63l-100.41 0c-3.66,0 -6.63,-2.86 -6.63,-6.39 0,-3.53 2.97,-6.39 6.63,-6.39l101.73 0c-0.59,-13.23 -9.95,-24.59 -23.18,-28.12 -29.66,-5.12 -60.02,-5.12 -89.68,0 -16.86,3.99 -29.46,17.53 -31.79,34.13 -4.64,30.09 -4.64,60.67 0,90.76 3.55,17.57 18.01,31.17 36.29,34.14 36.77,4.47 73.98,4.47 110.75,0 16.38,-3.21 28.77,-16.2 30.73,-32.22 3.36,-17.23 4.78,-34.76 4.24,-52.28zm-33.12 21.47l0 0 0 5.63c0,3.53 -2.96,6.39 -6.62,6.39 -3.66,0 -6.63,-2.86 -6.63,-6.39l0 -5.63c-2.14,-1.8 -3.35,-4.42 -3.31,-7.16 0,-5.29 4.45,-9.58 9.94,-9.58 5.48,0 9.93,4.29 9.93,9.58 -0.03,2.73 -1.23,5.32 -3.31,7.16z"/>
  <path class="fil4" d="M770.69 136.15c0.22,-26.9 -22.2,-48.88 -50.07,-49.09 -27.88,-0.21 -50.65,21.42 -50.87,48.32 -0.22,26.9 22.2,48.88 50.07,49.09 0.27,0 0.53,0 0.8,0 26.44,1.37 49.03,-18.21 50.45,-43.73 0.08,-1.53 0.09,-3.06 0.02,-4.59l-0.4 0zm-149.95 0l0 0c0,-51.14 41.86,-90.13 99.88,-90.13 58.02,0 99.88,39.25 99.88,90.13 0,50.88 -41.47,90.25 -99.88,90.25 -58.42,0 -99.88,-39.25 -99.88,-90.25z"/>
  <path class="fil4" d="M541.26 145.48c0,21.09 -22.26,38.35 -50.47,38.35 -25.92,2.53 -49.04,-15.7 -51.66,-40.7 -0.27,-2.53 -0.31,-5.08 -0.14,-7.62 0,-27.87 21.2,-47.05 53.78,-47.05 26.5,0 48.49,17.52 48.49,37.33l0 19.69zm1.98 -99.59l0 0 0 20.2c-16.12,-14.13 -37.47,-21.37 -59.21,-20.07 -51.39,0.46 -92.67,41.04 -92.2,90.64 0.48,49.6 42.53,89.43 93.92,88.97 21.16,0.92 41.76,-6.73 56.83,-21.09l0 17.26c0,23.39 -20.93,40.52 -48.48,40.52 -21.05,1.47 -41.77,-5.57 -57.23,-19.43l-32.19 29.92c24.14,22.86 56.94,35.15 90.74,34 56.43,0 95.11,-36.56 95.11,-85.27l0 -175.65 -47.29 0z"/>
  <path class="fil4" d="M849.64 51.14l47.42 0 0 15.08 0.66 0c15.55,-13.68 36.08,-20.85 57.1,-19.94 51.61,1.87 91.88,43.77 89.93,93.58 -1.84,47.18 -41.04,85.02 -89.93,86.8 -20.08,0.44 -39.68,-5.94 -55.37,-18.03l0 85.4 -49.41 0 -0.4 -242.89zm97.49 37.32l0 0c-26.49,0 -48.08,17.77 -48.08,37.08l0 21.6c0,20.58 21.32,37.59 48.35,37.59 27.54,1.37 51.02,-19.07 52.44,-45.65 1.42,-26.59 -19.75,-49.25 -47.3,-50.62 -1.71,-0.08 -3.43,-0.08 -5.14,0l-0.27 0z"/>
  <path class="fil4" d="M1139.61 119.66c32.45,-4.22 42.12,-8.7 42.12,-17.39 0,-11.25 -12.32,-18.02 -31.39,-18.02 -20.56,-1.63 -39.28,11.45 -44.11,30.8l-46.63 -9.33c6.62,-34.77 43.71,-59.57 89.41,-59.57 51.67,0 83.72,25.57 83.72,66.99l0 108.53 -44.37 0 0 -18.92 -0.67 0c-15.06,16.36 -37.12,25.04 -59.74,23.52 -39.08,0 -66.23,-20.58 -66.23,-51.13 0,-30.56 22.25,-48.07 77.89,-55.48zm46.1 18.02l0 0 -0.66 0c-4.38,6.14 -13.25,9.72 -37.76,13.81 -29.01,5.24 -39.74,10.74 -39.74,20.71 0,9.97 8.61,14.83 27.29,14.83 28.48,0 50.47,-12.79 50.47,-29.02l0.4 -20.33z"/>
  <polygon class="fil4" points="1322.15,212.08 1240.42,51.14 1294.86,51.14 1348.51,162.61 1349.3,162.61 1402.29,51.14 1457,51.14 1334.6,294.03 1280.16,294.03 "/>
 </g>
</svg>
