<?xml version="1.0" ?><!DOCTYPE svg  PUBLIC '-//W3C//DTD SVG 1.1//EN'  'http://www.w3.org/Graphics/SVG/1.1/DTD/svg11.dtd'><svg enable-background="new 0 0 128 128" height="128px" id="Layer_1" version="1.1" viewBox="0 0 128 128" width="128px" xml:space="preserve" xmlns="http://www.w3.org/2000/svg" xmlns:xlink="http://www.w3.org/1999/xlink"><path d="M128,101.853c0,2.243-1.818,4.061-4.061,4.061H6.061c-2.242,0-4.061-1.817-4.061-4.061V25.796  c0-2.243,1.818-4.061,4.061-4.061h117.879c2.242,0,4.061,1.818,4.061,4.061V101.853z" fill="#808080"/><g><path clip-rule="evenodd" d="M48.599,60.069c1.089-5.249,2.133-10.275,3.196-15.395   c2.754,0,5.414-0.118,8.056,0.045c1.545,0.097,2.76,0.992,3.242,2.625c0.613,2.085-0.356,3.529-2.021,4.819   c1.626,1.329,2.268,2.904,1.382,4.87c-0.872,1.929-2.448,2.928-4.466,3.006C54.979,60.156,51.964,60.069,48.599,60.069z    M53.422,53.721c-0.263,1.252-0.498,2.378-0.798,3.811c1.861-0.129,3.485-0.048,4.993-0.431c0.657-0.168,1.077-1.276,1.603-1.958   c-0.665-0.473-1.275-1.212-2.006-1.361C56.075,53.551,54.854,53.721,53.422,53.721z M54.039,50.934c1.366,0,2.494,0.106,3.59-0.028   c1.104-0.135,2.205-0.676,2.038-1.974c-0.076-0.592-0.987-1.548-1.472-1.522c-1.24,0.073-2.953-1.054-3.666,0.942   C54.259,49.108,54.217,49.947,54.039,50.934z" fill="#FFFFFF" fill-rule="evenodd"/><path clip-rule="evenodd" d="M90.113,54.434c0.592-2.807,1.09-5.065,1.537-7.331   c0.559-2.808,0.566-2.829,3.705-2.289c-0.434,2.063-0.871,4.12-1.293,6.18c-0.523,2.555-0.973,5.128-1.594,7.66   c-0.139,0.566-0.805,1.313-1.33,1.409c-0.953,0.175-2.084,0.417-2.617-1.055c-0.998-2.758-2.18-5.448-3.621-8.12   c-0.486,2.299-0.965,4.601-1.463,6.898c-0.572,2.632-0.582,2.631-3.648,2.115c0.68-3.354,1.357-6.705,2.041-10.053   c0.252-1.221,0.508-2.441,0.777-3.656c0.172-0.783,0.123-1.716,1.396-1.624c1.09,0.081,2.17-0.248,2.699,1.295   C87.645,48.594,88.826,51.241,90.113,54.434z" fill="#FFFFFF" fill-rule="evenodd"/><path clip-rule="evenodd" d="M56.011,75.061c-0.514,2.359-1.027,4.717-1.54,7.077   c-0.552,2.543-0.552,2.543-3.526,1.987c0.662-3.296,1.321-6.592,1.984-9.887c0.235-1.163,0.421-2.34,0.74-3.479   c0.225-0.806-0.036-1.979,1.507-1.942c1.272,0.033,2.205,0.088,2.713,1.568c0.919,2.666,2.076,5.249,3.34,8.379   c0.599-2.834,1.107-5.118,1.561-7.412c0.55-2.786,0.607-2.839,3.645-2.25c-0.857,4.163-1.716,8.326-2.575,12.489   c-0.082,0.406-0.063,0.873-0.267,1.208c-0.344,0.566-0.762,1.399-1.267,1.495c-1.018,0.193-2.18,0.413-2.725-1.142   c-0.96-2.737-2.137-5.396-3.222-8.09C56.256,75.063,56.132,75.063,56.011,75.061z" fill="#FFFFFF" fill-rule="evenodd"/><path clip-rule="evenodd" d="M34.118,84.099c-3.285,0.652-3.43,0.58-4.463-2.026   c-0.242-0.606-0.479-1.216-0.747-1.811c-0.938-2.082-1.522-2.408-3.99-2.19c-0.272,1.221-0.572,2.478-0.827,3.742   c-0.578,2.863-0.579,2.872-3.864,2.323c0.502-2.42,1.006-4.833,1.505-7.248c0.472-2.266,0.985-4.522,1.385-6.799   c0.167-0.959,0.578-1.281,1.531-1.254c2.078,0.057,4.161-0.004,6.24,0.021c2.67,0.033,3.956,0.999,4.393,3.242   c0.444,2.267-0.719,4.422-2.882,5.329c-0.376,0.158-0.768,0.27-1.229,0.432C32.161,79.959,33.127,82.002,34.118,84.099z    M25.55,75.801c1.722-0.212,3.348-0.188,4.788-0.691c0.68-0.239,1.207-1.458,1.37-2.316c0.053-0.288-1.208-1.144-1.913-1.203   c-3.587-0.298-3.595-0.234-4.241,3.241C25.523,74.997,25.55,75.175,25.55,75.801z" fill="#FFFFFF" fill-rule="evenodd"/><path clip-rule="evenodd" d="M118.949,77.924c1.023,2.163,1.953,4.124,2.902,6.128   c-3.139,0.76-3.404,0.632-4.445-1.948c-0.242-0.604-0.521-1.196-0.744-1.81c-0.662-1.816-1.865-2.688-3.986-2.216   c-0.271,1.187-0.584,2.438-0.844,3.701c-0.564,2.782-0.555,2.785-3.854,2.436c0.529-2.655,1.047-5.294,1.586-7.928   c0.398-1.973,0.883-3.932,1.219-5.916c0.191-1.131,0.629-1.61,1.848-1.546c1.953,0.104,3.916,0.014,5.873,0.031   c2.775,0.022,4.092,0.988,4.527,3.288c0.434,2.277-0.713,4.361-2.918,5.301C119.744,77.603,119.371,77.749,118.949,77.924z    M113.111,75.761c1.766-0.177,3.35-0.089,4.732-0.571c0.754-0.262,1.537-1.45,1.641-2.303c0.15-1.209-1.057-1.334-2.039-1.346   c-1.111-0.012-2.219-0.002-3.42-0.002C113.725,72.926,113.457,74.169,113.111,75.761z" fill="#FFFFFF" fill-rule="evenodd"/><path clip-rule="evenodd" d="M95.002,59.899c1-4.815,1.947-9.52,2.963-14.208   c0.283-1.312,0.563-1.345,3.604-0.919c-0.348,1.835-0.697,3.663-1.15,6.061c1.867-1.763,3.561-3.088,4.91-4.705   c1.682-2.013,3.701-1.525,6.303-1.464c-2.529,2.273-4.664,4.195-6.885,6.19c1.629,3.001,3.232,5.949,4.852,8.929   c-3.037,0.859-3.631,0.609-4.893-1.864c-0.777-1.528-1.586-3.04-2.439-4.672c-1.67,1.17-3.068,2.235-3.355,4.402   C98.545,60.402,98.299,60.454,95.002,59.899z" fill="#FFFFFF" fill-rule="evenodd"/><path clip-rule="evenodd" d="M96.805,68.959c3.902,0,7.615,0,11.32,0   c0.072,2.478-0.014,2.572-2.234,2.578c-1.127,0.002-2.256,0-3.383,0c-3.066,0.001-3.066,0.001-3.432,3.396c2.537,0,5.053,0,7.576,0   c-0.125,2.661-0.125,2.661-2.488,2.662c-1.891,0-3.781,0-5.789,0c-0.305,1.365-0.584,2.615-0.914,4.094c2.994,0,5.807,0,8.615,0   c-0.002,2.676-0.002,2.678-2.406,2.679c-3.25,0.001-6.502,0-10.041,0c0.566-2.74,1.088-5.267,1.611-7.795   C95.752,74.082,96.266,71.59,96.805,68.959z" fill="#FFFFFF" fill-rule="evenodd"/><path clip-rule="evenodd" d="M77.734,59.877c-3.033,0.584-3.088,0.57-3.547-2.03   c-0.162-0.917-0.545-1.391-1.527-1.29c-0.469,0.049-0.957,0.068-1.42-0.002c-2.123-0.323-3.602,0.302-4.398,2.467   c-0.707,1.921-2.394,0.865-3.965,1.111c0.3-0.687,0.466-1.166,0.712-1.602c2.384-4.242,4.864-8.436,7.14-12.735   c0.947-1.793,2.402-1.117,3.703-1.185c1.441-0.076,1.059,1.254,1.184,1.978C76.383,51.011,77.041,55.452,77.734,59.877z    M72.699,48.445c-1.111,2.056-1.967,3.64-2.855,5.282c1.352,0,2.445,0,3.67,0C73.25,52.016,73.012,50.455,72.699,48.445z" fill="#FFFFFF" fill-rule="evenodd"/><path clip-rule="evenodd" d="M80.123,73.048c-1.447,0.344-2.662,0.709-3.705-0.97   c-0.391-0.632-1.881-0.737-2.879-0.768c-0.439-0.014-1.188,0.705-1.275,1.188c-0.086,0.461,0.369,1.255,0.816,1.539   c1.094,0.694,2.324,1.179,3.5,1.745c1.752,0.845,2.863,2.133,2.717,4.182c-0.145,2.037-1.287,3.488-3.111,4.217   c-2.357,0.943-4.787,0.823-7.082-0.296c-0.607-0.296-1.287-0.832-1.51-1.418c-0.27-0.703-0.256-2.228-0.07-2.273   c0.969-0.255,2.123-0.883,2.879,0.626c0.777,1.548,4.014,1.699,5.129,0.353c0.857-1.036,0.322-1.805-0.592-2.33   c-1.129-0.65-2.361-1.117-3.51-1.738c-2.088-1.126-2.881-2.69-2.523-4.812c0.311-1.854,1.803-3.274,3.875-3.697   c3.785-0.77,6.857,0.848,7.436,3.918C80.236,72.62,80.178,72.739,80.123,73.048z" fill="#FFFFFF" fill-rule="evenodd"/><path clip-rule="evenodd" d="M34.476,84.145c0.185-0.442,0.322-0.885,0.543-1.278   c2.419-4.282,4.927-8.515,7.241-12.851c0.962-1.805,2.438-1.097,3.716-1.056c0.378,0.014,0.923,1.149,1.042,1.831   c0.777,4.423,1.458,8.863,2.167,13.285c-2.819,0.692-2.963,0.597-3.558-2.114c-0.074-0.339-0.227-0.929-0.378-0.94   c-1.644-0.122-3.301-0.264-4.935-0.139c-0.502,0.039-1.061,0.809-1.393,1.363C37.48,84.668,37.448,84.709,34.476,84.145z    M41.229,78.022c1.407,0,2.511,0,3.77,0c-0.264-1.732-0.507-3.334-0.818-5.381C43.095,74.621,42.225,76.208,41.229,78.022z" fill="#FFFFFF" fill-rule="evenodd"/><path clip-rule="evenodd" d="M83.9,68.937c3.742,0,7.225,0,10.703,0   c0.104,2.445-0.021,2.594-2.16,2.601c-1.127,0.003-2.27,0.113-3.381-0.026c-1.771-0.221-2.695,0.401-2.73,2.232   c-0.01,0.451-0.115,0.9-0.207,1.56c2.453,0,4.742,0,7.025,0c0.051,2.561-0.023,2.645-2.254,2.65c-1.719,0.002-3.436,0-5.393,0   c-0.291,1.323-0.588,2.624-0.855,3.933c-0.572,2.763-0.719,2.858-3.893,2.222C81.797,79.081,82.84,74.055,83.9,68.937z" fill="#FFFFFF" fill-rule="evenodd"/><path clip-rule="evenodd" d="M10.467,84.141c0.851-4.172,1.677-8.223,2.562-12.555   c-1.54,0-2.861,0-4.178,0c0.002-2.729,0.002-2.732,2.357-2.733c3.313-0.002,6.627,0,9.929,0c0.114,2.593,0.027,2.784-2.325,2.651   c-1.715-0.095-2.531,0.343-2.777,2.208c-0.355,2.696-1.084,5.344-1.641,8.014C13.782,84.677,13.735,84.713,10.467,84.141z" fill="#FFFFFF" fill-rule="evenodd"/><path clip-rule="evenodd" d="M25.594,46.229C20.246,46.231,14.897,46.251,9.55,46.2   c-0.514-0.005-1.023-0.444-1.536-0.683c0.493-0.193,0.984-0.554,1.478-0.556c10.814-0.033,21.629-0.034,32.443,0.002   c0.544,0.001,1.085,0.386,1.627,0.593c-0.524,0.224-1.044,0.637-1.569,0.64C36.527,46.244,31.061,46.226,25.594,46.229z" fill="#FFFFFF" fill-rule="evenodd"/><path clip-rule="evenodd" d="M23.193,52.647c-4.571,0.003-9.145,0.021-13.715-0.025   c-0.487-0.006-0.971-0.383-1.458-0.586c0.465-0.225,0.93-0.644,1.395-0.646c9.143-0.038,18.286-0.037,27.427,0.002   c0.455,0.002,0.907,0.437,1.359,0.668c-0.49,0.195-0.979,0.554-1.472,0.56C32.217,52.664,27.705,52.646,23.193,52.647z" fill="#FFFFFF" fill-rule="evenodd"/><path clip-rule="evenodd" d="M20.237,58.146c3.618,0,7.237-0.023,10.855,0.028   c0.473,0.008,0.939,0.402,1.411,0.618c-0.48,0.208-0.958,0.594-1.438,0.599c-7.236,0.038-14.474,0.037-21.709,0.002   c-0.44-0.002-0.878-0.352-1.317-0.539c0.449-0.235,0.892-0.67,1.344-0.677C13.001,58.12,16.619,58.145,20.237,58.146z" fill="#FFFFFF" fill-rule="evenodd"/></g></svg>